{
  "accessors": [
    {
      "bufferView": 2,
      "componentType": 5126,
      "count": 65534,
      "max": [
        2.9973597526550293,
        5.0,
        4.531465530395508
      ],
      "min": [
        -2.9518282413482666,
        -0.31368908286094666,
        -7.672980427742004e-05
      ],
      "type": "VEC3"
    },
    {
      "bufferView": 2,
      "byteOffset": 786408,
      "componentType": 5126,
      "count": 65534,
      "max": [
        1.0,
        1.0,
        1.0
      ],
      "min": [
        -1.0,
        -1.0,
        -1.0
      ],
      "type": "VEC3"
    },
    {
      "bufferView": 1,
      "componentType": 5126,
      "count": 65534,
      "max": [
        1.0,
        1.0
      ],
      "min": [
        0.0,
        0.0
      ],
      "type": "VEC2"
    },
    {
      "bufferView": 0,
      "componentType": 5125,
      "count": 118899,
      "type": "SCALAR"
    },
    {
      "bufferView": 2,
      "byteOffset": 1572816,
      "componentType": 5126,
      "count": 65532,
      "max": [
        0.9620171189308167,
        5.0,
        3.016650676727295
      ],
      "min": [
        -3.0002050399780273,
        1.1525731086730957,
        1.507114052772522
      ],
      "type": "VEC3"
    },
    {
      "bufferView": 2,
      "byteOffset": 2359200,
      "componentType": 5126,
      "count": 65532,
      "max": [
        1.0,
        1.0,
        1.0
      ],
      "min": [
        -1.0,
        -1.0,
        -1.0
      ],
      "type": "VEC3"
    },
    {
      "bufferView": 1,
      "byteOffset": 524272,
      "componentType": 5126,
      "count": 65532,
      "max": [
        1.0,
        1.0
      ],
      "min": [
        0.0,
        0.0
      ],
      "type": "VEC2"
    },
    {
      "bufferView": 0,
      "byteOffset": 475596,
      "componentType": 5125,
      "count": 103866,
      "type": "SCALAR"
    },
    {
      "bufferView": 2,
      "byteOffset": 3145584,
      "componentType": 5126,
      "count": 65534,
      "max": [
        3.0,
        3.0,
        4.5303778648376465
      ],
      "min": [
        -1.000205159187317,
        -1.0,
        0.097288578748703
      ],
      "type": "VEC3"
    },
    {
      "bufferView": 2,
      "byteOffset": 3931992,
      "componentType": 5126,
      "count": 65534,
      "max": [
        1.0,
        1.0,
        1.0
      ],
      "min": [
        -1.0,
        -1.0,
        -1.0
      ],
      "type": "VEC3"
    },
    {
      "bufferView": 1,
      "byteOffset": 1048528,
      "componentType": 5126,
      "count": 65534,
      "max": [
        1.0,
        1.0
      ],
      "min": [
        0.0,
        0.0
      ],
      "type": "VEC2"
    },
    {
      "bufferView": 0,
      "byteOffset": 891060,
      "componentType": 5125,
      "count": 106941,
      "type": "SCALAR"
    },
    {
      "bufferView": 2,
      "byteOffset": 4718400,
      "componentType": 5126,
      "count": 65533,
      "max": [
        1.0,
        2.2536988258361816,
        1.509536623954773
      ],
      "min": [
        -2.790925979614258,
        -1.0047043561935425,
        -7.672980427742004e-05
      ],
      "type": "VEC3"
    },
    {
      "bufferView": 2,
      "byteOffset": 5504796,
      "componentType": 5126,
      "count": 65533,
      "max": [
        1.0,
        1.0,
        1.0
      ],
      "min": [
        -1.0,
        -1.0,
        -1.0
      ],
      "type": "VEC3"
    },
    {
      "bufferView": 1,
      "byteOffset": 1572800,
      "componentType": 5126,
      "count": 65533,
      "max": [
        0.950323224067688,
        1.0
      ],
      "min": [
        0.0,
        0.0
      ],
      "type": "VEC2"
    },
    {
      "bufferView": 0,
      "byteOffset": 1318824,
      "componentType": 5125,
      "count": 100176,
      "type": "SCALAR"
    },
    {
      "bufferView": 2,
      "byteOffset": 6291192,
      "componentType": 5126,
      "count": 65532,
      "max": [
        2.9203763008117676,
        4.96335506439209,
        4.475472450256348
      ],
      "min": [
        -3.0002050399780273,
        -0.46346908807754517,
        0.0
      ],
      "type": "VEC3"
    },
    {
      "bufferView": 2,
      "byteOffset": 7077576,
      "componentType": 5126,
      "count": 65532,
      "max": [
        1.0,
        1.0,
        1.0
      ],
      "min": [
        -1.0,
        -1.0,
        -1.0
      ],
      "type": "VEC3"
    },
    {
      "bufferView": 1,
      "byteOffset": 2097064,
      "componentType": 5126,
      "count": 65532,
      "max": [
        0.9104896783828735,
        1.0
      ],
      "min": [
        0.0,
        0.0
      ],
      "type": "VEC2"
    },
    {
      "bufferView": 0,
      "byteOffset": 1719528,
      "componentType": 5125,
      "count": 97593,
      "type": "SCALAR"
    },
    {
      "bufferView": 2,
      "byteOffset": 7863960,
      "componentType": 5126,
      "count": 65532,
      "max": [
        -1.0054702758789063,
        2.9606707096099854,
        1.4400968551635742
      ],
      "min": [
        -2.995509147644043,
        1.7996476888656616,
        0.03542059659957886
      ],
      "type": "VEC3"
    },
    {
      "bufferView": 2,
      "byteOffset": 8650344,
      "componentType": 5126,
      "count": 65532,
      "max": [
        0.9991982579231262,
        1.0,
        0.9998645782470703
      ],
      "min": [
        -0.9989491701126099,
        -1.0,
        -0.9988498091697693
      ],
      "type": "VEC3"
    },
    {
      "bufferView": 1,
      "byteOffset": 2621320,
      "componentType": 5126,
      "count": 65532,
      "max": [
        0.5133251547813416,
        0.994392991065979
      ],
      "min": [
        0.009691238403320313,
        0.4882813096046448
      ],
      "type": "VEC2"
    },
    {
      "bufferView": 0,
      "byteOffset": 2109900,
      "componentType": 5125,
      "count": 98208,
      "type": "SCALAR"
    },
    {
      "bufferView": 2,
      "byteOffset": 9436728,
      "componentType": 5126,
      "count": 65532,
      "max": [
        -1.021437406539917,
        2.8931643962860107,
        1.409425973892212
      ],
      "min": [
        -2.947777032852173,
        1.0124138593673706,
        0.020285069942474365
      ],
      "type": "VEC3"
    },
    {
      "bufferView": 2,
      "byteOffset": 10223112,
      "componentType": 5126,
      "count": 65532,
      "max": [
        1.0,
        1.0,
        1.0
      ],
      "min": [
        -1.0,
        -1.0,
        -1.0
      ],
      "type": "VEC3"
    },
    {
      "bufferView": 1,
      "byteOffset": 3145576,
      "componentType": 5126,
      "count": 65532,
      "max": [
        0.9100885987281799,
        0.9891182780265808
      ],
      "min": [
        0.040627896785736084,
        0.11887697875499725
      ],
      "type": "VEC2"
    },
    {
      "bufferView": 0,
      "byteOffset": 2502732,
      "componentType": 5125,
      "count": 99954,
      "type": "SCALAR"
    },
    {
      "bufferView": 2,
      "byteOffset": 11009496,
      "componentType": 5126,
      "count": 28439,
      "max": [
        -1.0617750883102417,
        2.664048194885254,
        0.9895322918891907
      ],
      "min": [
        -1.8868974447250366,
        1.0124425888061523,
        0.10914871096611023
      ],
      "type": "VEC3"
    },
    {
      "bufferView": 2,
      "byteOffset": 11350764,
      "componentType": 5126,
      "count": 28439,
      "max": [
        0.9995716214179993,
        0.9995600581169128,
        1.0
      ],
      "min": [
        -0.9995715618133545,
        -0.9995600581169128,
        -1.0
      ],
      "type": "VEC3"
    },
    {
      "bufferView": 1,
      "byteOffset": 3669832,
      "componentType": 5126,
      "count": 28439,
      "max": [
        0.9100885987281799,
        0.4746103286743164
      ],
      "min": [
        0.5276795625686646,
        0.05066833645105362
      ],
      "type": "VEC2"
    },
    {
      "bufferView": 0,
      "byteOffset": 2902548,
      "componentType": 5125,
      "count": 42657,
      "type": "SCALAR"
    },
    {
      "bufferView": 2,
      "byteOffset": 11692032,
      "componentType": 5126,
      "count": 80,
      "max": [
        2.253279209136963,
        4.632263660430908,
        4.014707565307617
      ],
      "min": [
        -1.0527523756027222,
        0.957417368888855,
        0.5070777535438538
      ],
      "type": "VEC3"
    },
    {
      "bufferView": 2,
      "byteOffset": 11692992,
      "componentType": 5126,
      "count": 80,
      "max": [
        0.8940266966819763,
        0.0,
        1.8096569931458362e-07
      ],
      "min": [
        -1.0,
        -1.0,
        -8.143462082443875e-08
      ],
      "type": "VEC3"
    },
    {
      "bufferView": 1,
      "byteOffset": 3897344,
      "componentType": 5126,
      "count": 80,
      "max": [
        0.78086256980896,
        0.4665488600730896
      ],
      "min": [
        0.78086256980896,
        0.4665488600730896
      ],
      "type": "VEC2"
    },
    {
      "bufferView": 0,
      "byteOffset": 3073176,
      "componentType": 5125,
      "count": 204,
      "type": "SCALAR"
    },
    {
      "bufferView": 2,
      "byteOffset": 11693952,
      "componentType": 5126,
      "count": 1161,
      "max": [
        2.8625948429107666,
        4.947644233703613,
        3.759756088256836
      ],
      "min": [
        -2.9583911895751953,
        -0.8656052350997925,
        0.3816372752189636
      ],
      "type": "VEC3"
    },
    {
      "bufferView": 2,
      "byteOffset": 11707884,
      "componentType": 5126,
      "count": 1161,
      "max": [
        0.9999834895133972,
        1.0,
        0.9436310529708862
      ],
      "min": [
        -0.995461106300354,
        -0.9846311211585999,
        -0.9441343545913696
      ],
      "type": "VEC3"
    },
    {
      "bufferView": 1,
      "byteOffset": 3897984,
      "componentType": 5126,
      "count": 1161,
      "max": [
        0.8420488238334656,
        0.49543869495391846
      ],
      "min": [
        0.5196862816810608,
        0.2829458713531494
      ],
      "type": "VEC2"
    },
    {
      "bufferView": 0,
      "byteOffset": 3073992,
      "componentType": 5125,
      "count": 1269,
      "type": "SCALAR"
    },
    {
      "bufferView": 2,
      "byteOffset": 11721816,
      "componentType": 5126,
      "count": 4,
      "max": [
        -1.2842098474502563,
        4.760526180267334,
        2.081591844558716
      ],
      "min": [
        -1.362754464149475,
        4.644996643066406,
        2.013625383377075
      ],
      "type": "VEC3"
    },
    {
      "bufferView": 2,
      "byteOffset": 11721864,
      "componentType": 5126,
      "count": 4,
      "max": [
        -0.8233778476715088,
        -0.567348062992096,
        0.012852532789111137
      ],
      "min": [
        -0.8233778476715088,
        -0.567348062992096,
        0.012852532789111137
      ],
      "type": "VEC3"
    },
    {
      "bufferView": 1,
      "byteOffset": 3907272,
      "componentType": 5126,
      "count": 4,
      "max": [
        0.5,
        0.5000000596046448
      ],
      "min": [
        0.5,
        0.5000000596046448
      ],
      "type": "VEC2"
    },
    {
      "bufferView": 0,
      "byteOffset": 3079068,
      "componentType": 5125,
      "count": 6,
      "type": "SCALAR"
    }
  ],
  "asset": {
    "extras": {
      "author": "thegriffindude (https://sketchfab.com/thegriffindude)",
      "license": "CC-BY-4.0 (http://creativecommons.org/licenses/by/4.0/)",
      "source": "https://sketchfab.com/3d-models/lees-house-9f742682d06c46d7bd40e1f94edeca0b",
      "title": "Lee's House"
    },
    "generator": "Sketchfab-13.52.1",
    "version": "2.0"
  },
  "bufferViews": [
    {
      "buffer": 0,
      "byteLength": 3079092,
      "name": "floatBufferViews",
      "target": 34963
    },
    {
      "buffer": 0,
      "byteLength": 3907304,
      "byteOffset": 3079092,
      "byteStride": 8,
      "name": "floatBufferViews",
      "target": 34962
    },
    {
      "buffer": 0,
      "byteLength": 11721912,
      "byteOffset": 6986396,
      "byteStride": 12,
      "name": "floatBufferViews",
      "target": 34962
    }
  ],
  "buffers": [
    {
      "byteLength": 18708308,
      "uri": "scene.bin"
    }
  ],
  "images": [
    {
      "uri": "textures/Material_baseColor.png"
    },
    {
      "uri": "textures/Lighting_emissive.png"
    }
  ],
  "materials": [
    {
      "doubleSided": true,
      "name": "Material",
      "pbrMetallicRoughness": {
        "baseColorTexture": {
          "index": 0
        },
        "metallicFactor": 0.0,
        "roughnessFactor": 0.8040408205773457
      }
    },
    {
      "doubleSided": true,
      "emissiveFactor": [
        1.0,
        1.0,
        1.0
      ],
      "emissiveTexture": {
        "index": 1
      },
      "name": "Lighting",
      "pbrMetallicRoughness": {
        "baseColorFactor": [
          0.8,
          0.8,
          0.8,
          1.0
        ],
        "metallicFactor": 0.0,
        "roughnessFactor": 0.8211145618000169
      }
    }
  ],
  "meshes": [
    {
      "name": "House_Material_0",
      "primitives": [
        {
          "attributes": {
            "NORMAL": 1,
            "POSITION": 0,
            "TEXCOORD_0": 2
          },
          "indices": 3,
          "material": 0,
          "mode": 4
        }
      ]
    },
    {
      "name": "House_Material_0",
      "primitives": [
        {
          "attributes": {
            "NORMAL": 5,
            "POSITION": 4,
            "TEXCOORD_0": 6
          },
          "indices": 7,
          "material": 0,
          "mode": 4
        }
      ]
    },
    {
      "name": "House_Material_0",
      "primitives": [
        {
          "attributes": {
            "NORMAL": 9,
            "POSITION": 8,
            "TEXCOORD_0": 10
          },
          "indices": 11,
          "material": 0,
          "mode": 4
        }
      ]
    },
    {
      "name": "House_Material_0",
      "primitives": [
        {
          "attributes": {
            "NORMAL": 13,
            "POSITION": 12,
            "TEXCOORD_0": 14
          },
          "indices": 15,
          "material": 0,
          "mode": 4
        }
      ]
    },
    {
      "name": "House_Material_0",
      "primitives": [
        {
          "attributes": {
            "NORMAL": 17,
            "POSITION": 16,
            "TEXCOORD_0": 18
          },
          "indices": 19,
          "material": 0,
          "mode": 4
        }
      ]
    },
    {
      "name": "House_Material_0",
      "primitives": [
        {
          "attributes": {
            "NORMAL": 21,
            "POSITION": 20,
            "TEXCOORD_0": 22
          },
          "indices": 23,
          "material": 0,
          "mode": 4
        }
      ]
    },
    {
      "name": "House_Material_0",
      "primitives": [
        {
          "attributes": {
            "NORMAL": 25,
            "POSITION": 24,
            "TEXCOORD_0": 26
          },
          "indices": 27,
          "material": 0,
          "mode": 4
        }
      ]
    },
    {
      "name": "House_Material_0",
      "primitives": [
        {
          "attributes": {
            "NORMAL": 29,
            "POSITION": 28,
            "TEXCOORD_0": 30
          },
          "indices": 31,
          "material": 0,
          "mode": 4
        }
      ]
    },
    {
      "name": "Glass_Material_0",
      "primitives": [
        {
          "attributes": {
            "NORMAL": 33,
            "POSITION": 32,
            "TEXCOORD_0": 34
          },
          "indices": 35,
          "material": 0,
          "mode": 4
        }
      ]
    },
    {
      "name": "Lights_Lighting_0",
      "primitives": [
        {
          "attributes": {
            "NORMAL": 37,
            "POSITION": 36,
            "TEXCOORD_0": 38
          },
          "indices": 39,
          "material": 1,
          "mode": 4
        }
      ]
    },
    {
      "name": "Lights_Material_0",
      "primitives": [
        {
          "attributes": {
            "NORMAL": 41,
            "POSITION": 40,
            "TEXCOORD_0": 42
          },
          "indices": 43,
          "material": 0,
          "mode": 4
        }
      ]
    }
  ],
  "nodes": [
    {
      "children": [
        1
      ],
      "matrix": [
        1.0,
        0.0,
        0.0,
        0.0,
        0.0,
        2.220446049250313e-16,
        -1.0,
        0.0,
        0.0,
        1.0,
        2.220446049250313e-16,
        0.0,
        0.0,
        0.0,
        0.0,
        1.0
      ],
      "name": "Sketchfab_model"
    },
    {
      "children": [
        2
      ],
      "matrix": [
        0.009999999776482582,
        0.0,
        0.0,
        0.0,
        0.0,
        0.0,
        0.009999999776482582,
        0.0,
        0.0,
        -0.009999999776482582,
        0.0,
        0.0,
        0.0,
        0.0,
        0.0,
        1.0
      ],
      "name": "RoomsSeparate.fbx"
    },
    {
      "children": [
        3,
        12,
        14,
        17,
        20
      ],
      "name": "RootNode"
    },
    {
      "children": [
        4,
        5,
        6,
        7,
        8,
        9,
        10,
        11
      ],
      "matrix": [
        100.0,
        0.0,
        0.0,
        0.0,
        0.0,
        -1.629206793918314e-05,
        -99.99999999999868,
        0.0,
        0.0,
        99.99999999999868,
        -1.629206793918314e-05,
        0.0,
        100.0,
        0.0,
        100.0,
        1.0
      ],
      "name": "House"
    },
    {
      "mesh": 0,
      "name": "House_Material_0"
    },
    {
      "mesh": 1,
      "name": "House_Material_0"
    },
    {
      "mesh": 2,
      "name": "House_Material_0"
    },
    {
      "mesh": 3,
      "name": "House_Material_0"
    },
    {
      "mesh": 4,
      "name": "House_Material_0"
    },
    {
      "mesh": 5,
      "name": "House_Material_0"
    },
    {
      "mesh": 6,
      "name": "House_Material_0"
    },
    {
      "mesh": 7,
      "name": "House_Material_0"
    },
    {
      "children": [
        13
      ],
      "matrix": [
        100.0,
        0.0,
        0.0,
        0.0,
        0.0,
        -1.629206793918314e-05,
        -99.99999999999868,
        0.0,
        0.0,
        99.99999999999868,
        -1.629206793918314e-05,
        0.0,
        100.0,
        0.0,
        100.0,
        1.0
      ],
      "name": "Glass"
    },
    {
      "mesh": 8,
      "name": "Glass_Material_0"
    },
    {
      "children": [
        15,
        16
      ],
      "matrix": [
        100.0,
        0.0,
        0.0,
        0.0,
        0.0,
        -1.629206793918314e-05,
        -99.99999999999868,
        0.0,
        0.0,
        99.99999999999868,
        -1.629206793918314e-05,
        0.0,
        100.0,
        0.0,
        100.0,
        1.0
      ],
      "name": "Lights"
    },
    {
      "mesh": 9,
      "name": "Lights_Lighting_0"
    },
    {
      "mesh": 10,
      "name": "Lights_Material_0"
    },
    {
      "children": [
        18
      ],
      "matrix": [
        92.74489331076869,
        35.26391035207681,
        12.443528095151478,
        0.0,
        -30.934777387058187,
        53.65453532552982,
        78.51261291674496,
        0.0,
        21.010100256478736,
        -76.66581680046305,
        60.67065370943805,
        0.0,
        0.0,
        430.63336181640625,
        280.5361328125,
        1.0
      ],
      "name": "Sun"
    },
    {
      "children": [
        19
      ],
      "matrix": [
        1.0,
        0.0,
        0.0,
        0.0,
        0.0,
        2.220446049250313e-16,
        1.0,
        0.0,
        0.0,
        -1.0,
        2.220446049250313e-16,
        0.0,
        0.0,
        0.0,
        0.0,
        1.0
      ],
      "name": "Object_18"
    },
    {
      "name": "Object_19"
    },
    {
      "children": [
        21
      ],
      "matrix": [
        67.15893189860189,
        -44.19590427383207,
        -59.467637515351356,
        0.0,
        33.0885842101808,
        89.70352303773078,
        -29.29886601193087,
        0.0,
        66.29345963673876,
        -0.0001938450420502992,
        74.86772123869983,
        0.0,
        -458.423095703125,
        550.4183959960938,
        399.9759521484375,
        1.0
      ],
      "name": "Camera"
    },
    {
      "name": "Object_21"
    }
  ],
  "samplers": [
    {
      "magFilter": 9729,
      "minFilter": 9987,
      "wrapS": 10497,
      "wrapT": 10497
    }
  ],
  "scene": 0,
  "scenes": [
    {
      "name": "Sketchfab_Scene",
      "nodes": [
        0
      ]
    }
  ],
  "textures": [
    {
      "sampler": 0,
      "source": 0
    },
    {
      "sampler": 0,
      "source": 1
    }
  ]
}
